<svg width="113" height="36" viewBox="0 0 113 36" fill="none" xmlns="http://www.w3.org/2000/svg">
<path d="M4.67999 2.15991C8.85386 2.15991 12.2374 5.5435 12.2374 9.71736V26.8617C8.06358 26.8617 4.67999 23.4781 4.67999 19.3042V2.15991Z" fill="white"/>
<path d="M14.1268 9.13818C18.3007 9.13818 21.6843 12.5218 21.6843 16.6956V33.8399C17.5104 33.8399 14.1268 30.4563 14.1268 26.2825V9.13818Z" fill="white"/>
<path d="M23.7626 33.8399C25.7669 33.8399 27.6892 33.1893 29.1065 32.0311C30.5238 30.873 31.32 29.3023 31.32 27.6645C31.32 26.0266 30.5238 24.4559 29.1065 23.2978C27.6892 22.1396 25.7669 21.489 23.7626 21.489L23.7626 27.6644V33.8399Z" fill="white"/>
<path d="M47.728 16.336C47.984 15.92 48.352 15.584 48.832 15.328C49.312 15.072 49.8613 14.944 50.48 14.944C51.216 14.944 51.8827 15.1307 52.48 15.504C53.0773 15.8773 53.5467 16.4107 53.888 17.104C54.24 17.7973 54.416 18.6027 54.416 19.52C54.416 20.4373 54.24 21.248 53.888 21.952C53.5467 22.6453 53.0773 23.184 52.48 23.568C51.8827 23.9413 51.216 24.128 50.48 24.128C49.8507 24.128 49.3013 24.0053 48.832 23.76C48.3627 23.504 47.9947 23.168 47.728 22.752V24H44.992V12.16H47.728V16.336ZM51.632 19.52C51.632 18.8373 51.44 18.304 51.056 17.92C50.6827 17.5253 50.2187 17.328 49.664 17.328C49.12 17.328 48.656 17.5253 48.272 17.92C47.8987 18.3147 47.712 18.8533 47.712 19.536C47.712 20.2187 47.8987 20.7573 48.272 21.152C48.656 21.5467 49.12 21.744 49.664 21.744C50.208 21.744 50.672 21.5467 51.056 21.152C51.44 20.7467 51.632 20.2027 51.632 19.52ZM57.2274 14.144C56.7474 14.144 56.3527 14.0053 56.0434 13.728C55.7447 13.44 55.5954 13.088 55.5954 12.672C55.5954 12.2453 55.7447 11.8933 56.0434 11.616C56.3527 11.328 56.7474 11.184 57.2274 11.184C57.6967 11.184 58.0807 11.328 58.3794 11.616C58.6887 11.8933 58.8434 12.2453 58.8434 12.672C58.8434 13.088 58.6887 13.44 58.3794 13.728C58.0807 14.0053 57.6967 14.144 57.2274 14.144ZM58.5874 15.072V24H55.8514V15.072H58.5874ZM63.1301 21.744H67.0021V24H60.0741V21.824L63.7861 17.328H60.1061V15.072H66.9221V17.248L63.1301 21.744ZM67.9636 19.52C67.9636 18.6027 68.1343 17.7973 68.4756 17.104C68.8276 16.4107 69.3023 15.8773 69.8996 15.504C70.497 15.1307 71.1636 14.944 71.8996 14.944C72.4863 14.944 73.0196 15.0667 73.4996 15.312C73.9903 15.5573 74.3743 15.888 74.6516 16.304V12.16H77.3876V24H74.6516V22.72C74.3956 23.1467 74.0276 23.488 73.5476 23.744C73.0783 24 72.529 24.128 71.8996 24.128C71.1636 24.128 70.497 23.9413 69.8996 23.568C69.3023 23.184 68.8276 22.6453 68.4756 21.952C68.1343 21.248 67.9636 20.4373 67.9636 19.52ZM74.6516 19.536C74.6516 18.8533 74.4596 18.3147 74.0756 17.92C73.7023 17.5253 73.2436 17.328 72.6996 17.328C72.1556 17.328 71.6916 17.5253 71.3076 17.92C70.9343 18.304 70.7476 18.8373 70.7476 19.52C70.7476 20.2027 70.9343 20.7467 71.3076 21.152C71.6916 21.5467 72.1556 21.744 72.6996 21.744C73.2436 21.744 73.7023 21.5467 74.0756 21.152C74.4596 20.7573 74.6516 20.2187 74.6516 19.536ZM80.743 14.144C80.263 14.144 79.8683 14.0053 79.559 13.728C79.2603 13.44 79.111 13.088 79.111 12.672C79.111 12.2453 79.2603 11.8933 79.559 11.616C79.8683 11.328 80.263 11.184 80.743 11.184C81.2123 11.184 81.5963 11.328 81.895 11.616C82.2043 11.8933 82.359 12.2453 82.359 12.672C82.359 13.088 82.2043 13.44 81.895 13.728C81.5963 14.0053 81.2123 14.144 80.743 14.144ZM82.103 15.072V24H79.367V15.072H82.103ZM89.5258 14.976C90.5711 14.976 91.4031 15.3173 92.0218 16C92.6511 16.672 92.9658 17.6 92.9658 18.784V24H90.2458V19.152C90.2458 18.5547 90.0911 18.0907 89.7818 17.76C89.4724 17.4293 89.0564 17.264 88.5338 17.264C88.0111 17.264 87.5951 17.4293 87.2858 17.76C86.9764 18.0907 86.8218 18.5547 86.8218 19.152V24H84.0858V15.072H86.8218V16.256C87.0991 15.8613 87.4724 15.552 87.9418 15.328C88.4111 15.0933 88.9391 14.976 89.5258 14.976ZM97.7136 19.52C97.7136 18.6027 97.8843 17.7973 98.2256 17.104C98.5776 16.4107 99.0523 15.8773 99.6496 15.504C100.247 15.1307 100.914 14.944 101.65 14.944C102.279 14.944 102.828 15.072 103.298 15.328C103.778 15.584 104.146 15.92 104.402 16.336V15.072H107.138V24H104.402V22.736C104.135 23.152 103.762 23.488 103.282 23.744C102.812 24 102.263 24.128 101.634 24.128C100.908 24.128 100.247 23.9413 99.6496 23.568C99.0523 23.184 98.5776 22.6453 98.2256 21.952C97.8843 21.248 97.7136 20.4373 97.7136 19.52ZM104.402 19.536C104.402 18.8533 104.21 18.3147 103.826 17.92C103.452 17.5253 102.994 17.328 102.45 17.328C101.906 17.328 101.442 17.5253 101.058 17.92C100.684 18.304 100.498 18.8373 100.498 19.52C100.498 20.2027 100.684 20.7467 101.058 21.152C101.442 21.5467 101.906 21.744 102.45 21.744C102.994 21.744 103.452 21.5467 103.826 21.152C104.21 20.7573 104.402 20.2187 104.402 19.536ZM110.493 14.144C110.013 14.144 109.618 14.0053 109.309 13.728C109.01 13.44 108.861 13.088 108.861 12.672C108.861 12.2453 109.01 11.8933 109.309 11.616C109.618 11.328 110.013 11.184 110.493 11.184C110.962 11.184 111.346 11.328 111.645 11.616C111.954 11.8933 112.109 12.2453 112.109 12.672C112.109 13.088 111.954 13.44 111.645 13.728C111.346 14.0053 110.962 14.144 110.493 14.144ZM111.853 15.072V24H109.117V15.072H111.853Z" fill="white"/>
</svg>
