<svg width="102" height="102" viewBox="0 0 102 102" fill="none" xmlns="http://www.w3.org/2000/svg">
<g filter="url(#filter0_b_1_93)">
<rect x="1" y="1" width="100" height="100" rx="24" fill="url(#paint0_radial_1_93)" fill-opacity="0.2"/>
<rect x="1" y="1" width="100" height="100" rx="24" stroke="url(#paint1_linear_1_93)" stroke-width="2"/>
</g>
<circle cx="64.3334" cy="39" r="16.6667" fill="url(#paint2_linear_1_93)"/>
<g clip-path="url(#clip0_1_93)">
<g filter="url(#filter1_b_1_93)">
<path d="M45.0664 33C35.0889 33 27.3692 39.4622 28.6067 46.7785L28.8399 48.157C29.1811 50.1742 28.184 52.189 26.1624 53.5677C21.9732 56.4244 20.8093 60.9712 23.2971 64.7613L23.6007 65.224C25.9196 68.7568 30.7659 71 36.0792 71H60.2353C64.8184 71 69.0838 69.2698 71.5445 66.4125C75.0181 62.3792 74.0981 57.0881 69.3576 53.8348L69.2286 53.7463C67.0585 52.257 65.9901 50.0872 66.3574 47.9156L66.5473 46.7931C67.7862 39.4691 60.0583 33 50.0702 33H45.0664Z" fill="#CC6D28" fill-opacity="0.35"/>
<path d="M45.0664 33C35.0889 33 27.3692 39.4622 28.6067 46.7785L28.8399 48.157C29.1811 50.1742 28.184 52.189 26.1624 53.5677C21.9732 56.4244 20.8093 60.9712 23.2971 64.7613L23.6007 65.224C25.9196 68.7568 30.7659 71 36.0792 71H60.2353C64.8184 71 69.0838 69.2698 71.5445 66.4125C75.0181 62.3792 74.0981 57.0881 69.3576 53.8348L69.2286 53.7463C67.0585 52.257 65.9901 50.0872 66.3574 47.9156L66.5473 46.7931C67.7862 39.4691 60.0583 33 50.0702 33H45.0664Z" stroke="url(#paint3_linear_1_93)" stroke-linecap="round"/>
</g>
</g>
<defs>
<filter id="filter0_b_1_93" x="-24" y="-24" width="150" height="150" filterUnits="userSpaceOnUse" color-interpolation-filters="sRGB">
<feFlood flood-opacity="0" result="BackgroundImageFix"/>
<feGaussianBlur in="BackgroundImageFix" stdDeviation="12"/>
<feComposite in2="SourceAlpha" operator="in" result="effect1_backgroundBlur_1_93"/>
<feBlend mode="normal" in="SourceGraphic" in2="effect1_backgroundBlur_1_93" result="shape"/>
</filter>
<filter id="filter1_b_1_93" x="-2.5" y="8.5" width="100.641" height="87" filterUnits="userSpaceOnUse" color-interpolation-filters="sRGB">
<feFlood flood-opacity="0" result="BackgroundImageFix"/>
<feGaussianBlur in="BackgroundImageFix" stdDeviation="12"/>
<feComposite in2="SourceAlpha" operator="in" result="effect1_backgroundBlur_1_93"/>
<feBlend mode="normal" in="SourceGraphic" in2="effect1_backgroundBlur_1_93" result="shape"/>
</filter>
<radialGradient id="paint0_radial_1_93" cx="0" cy="0" r="1" gradientUnits="userSpaceOnUse" gradientTransform="translate(1 1) rotate(45) scale(141.421)">
<stop stop-color="#FAFAFA"/>
<stop offset="1" stop-color="#F7F7F7" stop-opacity="0"/>
</radialGradient>
<linearGradient id="paint1_linear_1_93" x1="51" y1="1" x2="51" y2="101" gradientUnits="userSpaceOnUse">
<stop stop-color="white"/>
<stop offset="1" stop-color="white" stop-opacity="0"/>
</linearGradient>
<linearGradient id="paint2_linear_1_93" x1="47.6667" y1="55.6667" x2="81.7103" y2="23.0752" gradientUnits="userSpaceOnUse">
<stop stop-color="#945020"/>
<stop offset="1" stop-color="#FF862E"/>
</linearGradient>
<linearGradient id="paint3_linear_1_93" x1="22" y1="33" x2="58.3092" y2="82.2933" gradientUnits="userSpaceOnUse">
<stop stop-color="white" stop-opacity="0.25"/>
<stop offset="1" stop-color="white" stop-opacity="0"/>
</linearGradient>
<clipPath id="clip0_1_93">
<rect width="53.3333" height="53.3333" fill="white" transform="translate(21 29)"/>
</clipPath>
</defs>
</svg>
