<svg width="102" height="102" viewBox="0 0 102 102" fill="none" xmlns="http://www.w3.org/2000/svg">
<g filter="url(#filter0_b_1_72)">
<rect x="1" y="1" width="100" height="100" rx="24" fill="url(#paint0_radial_1_72)" fill-opacity="0.2"/>
<rect x="1" y="1" width="100" height="100" rx="24" stroke="url(#paint1_linear_1_72)" stroke-width="2"/>
</g>
<path d="M54.4196 51.8836C49.9175 47.3815 47.6665 45.1305 47.6665 42.3333C47.6665 39.5361 49.9175 37.2851 54.4196 32.7831L54.783 32.4197C59.285 27.9177 61.536 25.6667 64.3332 25.6667C67.1304 25.6667 69.3814 27.9177 73.8834 32.4197L74.2468 32.7831C78.7489 37.2851 80.9999 39.5361 80.9999 42.3333C80.9999 45.1305 78.7489 47.3815 74.2468 51.8836L73.8834 52.2469C69.3814 56.749 67.1304 59 64.3332 59C61.536 59 59.285 56.749 54.783 52.247L54.4196 51.8836Z" fill="url(#paint2_linear_1_72)"/>
<g filter="url(#filter1_b_1_72)">
<path fill-rule="evenodd" clip-rule="evenodd" d="M47.033 31.9569C47.4551 31.936 47.8781 31.936 48.3002 31.9569C49.9299 32.0378 51.4303 32.5114 53.1028 33.2875C54.7311 34.0431 56.6231 35.1355 59.0167 36.5175L59.1524 36.5958C61.5462 37.9778 63.4383 39.0702 64.9068 40.1025C66.4152 41.1629 67.5755 42.2255 68.4604 43.5964C68.6897 43.9515 68.9011 44.3178 69.0941 44.6939C69.8388 46.1457 70.1789 47.6818 70.343 49.5184C70.5028 51.3063 70.5028 53.4911 70.5028 56.255V56.4117C70.5028 59.1756 70.5028 61.3605 70.343 63.1484C70.1789 64.985 69.8388 66.5211 69.0941 67.9729C68.9011 68.349 68.6897 68.7153 68.4604 69.0704C67.5755 70.4413 66.4153 71.5039 64.9068 72.5643C63.4383 73.5966 61.5462 74.689 59.1524 76.071L59.0169 76.1492C56.6232 77.5313 54.7311 78.6237 53.1028 79.3793C51.4303 80.1555 49.9299 80.629 48.3002 80.7099C47.8781 80.7309 47.4551 80.7309 47.033 80.7099C45.4033 80.629 43.9029 80.1555 42.2303 79.3793C40.6021 78.6237 38.7101 77.5313 36.3164 76.1493L36.1806 76.0709C33.7871 74.689 31.8948 73.5965 30.4264 72.5643C28.9179 71.5039 27.7577 70.4413 26.8727 69.0704C26.6435 68.7153 26.432 68.349 26.2391 67.9729C25.4943 66.5211 25.1543 64.985 24.9901 63.1484C24.8304 61.3605 24.8304 59.1757 24.8304 56.4117V56.2552C24.8304 53.4911 24.8304 51.3063 24.9901 49.5184C25.1543 47.6818 25.4943 46.1457 26.2391 44.6939C26.432 44.3178 26.6435 43.9515 26.8727 43.5964C27.7576 42.2255 28.9179 41.1629 30.4264 40.1025C31.8949 39.0702 33.787 37.9778 36.1807 36.5958L36.3162 36.5176C38.71 35.1356 40.6021 34.0431 42.2303 33.2875C43.9029 32.5114 45.4033 32.0378 47.033 31.9569Z" fill="#C927AA" fill-opacity="0.35"/>
<path fill-rule="evenodd" clip-rule="evenodd" d="M47.033 31.9569C47.4551 31.936 47.8781 31.936 48.3002 31.9569C49.9299 32.0378 51.4303 32.5114 53.1028 33.2875C54.7311 34.0431 56.6231 35.1355 59.0167 36.5175L59.1524 36.5958C61.5462 37.9778 63.4383 39.0702 64.9068 40.1025C66.4152 41.1629 67.5755 42.2255 68.4604 43.5964C68.6897 43.9515 68.9011 44.3178 69.0941 44.6939C69.8388 46.1457 70.1789 47.6818 70.343 49.5184C70.5028 51.3063 70.5028 53.4911 70.5028 56.255V56.4117C70.5028 59.1756 70.5028 61.3605 70.343 63.1484C70.1789 64.985 69.8388 66.5211 69.0941 67.9729C68.9011 68.349 68.6897 68.7153 68.4604 69.0704C67.5755 70.4413 66.4153 71.5039 64.9068 72.5643C63.4383 73.5966 61.5462 74.689 59.1524 76.071L59.0169 76.1492C56.6232 77.5313 54.7311 78.6237 53.1028 79.3793C51.4303 80.1555 49.9299 80.629 48.3002 80.7099C47.8781 80.7309 47.4551 80.7309 47.033 80.7099C45.4033 80.629 43.9029 80.1555 42.2303 79.3793C40.6021 78.6237 38.7101 77.5313 36.3164 76.1493L36.1806 76.0709C33.7871 74.689 31.8948 73.5965 30.4264 72.5643C28.9179 71.5039 27.7577 70.4413 26.8727 69.0704C26.6435 68.7153 26.432 68.349 26.2391 67.9729C25.4943 66.5211 25.1543 64.985 24.9901 63.1484C24.8304 61.3605 24.8304 59.1757 24.8304 56.4117V56.2552C24.8304 53.4911 24.8304 51.3063 24.9901 49.5184C25.1543 47.6818 25.4943 46.1457 26.2391 44.6939C26.432 44.3178 26.6435 43.9515 26.8727 43.5964C27.7576 42.2255 28.9179 41.1629 30.4264 40.1025C31.8949 39.0702 33.787 37.9778 36.1807 36.5958L36.3162 36.5176C38.71 35.1356 40.6021 34.0431 42.2303 33.2875C43.9029 32.5114 45.4033 32.0378 47.033 31.9569Z" stroke="url(#paint3_linear_1_72)"/>
</g>
<g filter="url(#filter2_d_1_72)">
<path fill-rule="evenodd" clip-rule="evenodd" d="M60.274 50.7182C60.6793 49.8918 60.338 48.8932 59.5116 48.4879C58.6852 48.0825 57.6867 48.4238 57.2813 49.2502L54.0361 55.8659C53.0302 57.9164 50.0739 57.8163 49.2091 55.7024C47.2554 50.9267 40.5766 50.7005 38.3043 55.333L35.0591 61.9486C34.6537 62.775 34.995 63.7736 35.8214 64.179C36.6478 64.5843 37.6464 64.243 38.0517 63.4166L41.2969 56.801C42.3028 54.7504 45.2591 54.8505 46.1239 56.9645C48.0776 61.7401 54.7564 61.9664 57.0288 57.3339L60.274 50.7182Z" fill="url(#paint4_linear_1_72)"/>
</g>
<defs>
<filter id="filter0_b_1_72" x="-24" y="-24" width="150" height="150" filterUnits="userSpaceOnUse" color-interpolation-filters="sRGB">
<feFlood flood-opacity="0" result="BackgroundImageFix"/>
<feGaussianBlur in="BackgroundImageFix" stdDeviation="12"/>
<feComposite in2="SourceAlpha" operator="in" result="effect1_backgroundBlur_1_72"/>
<feBlend mode="normal" in="SourceGraphic" in2="effect1_backgroundBlur_1_72" result="shape"/>
</filter>
<filter id="filter1_b_1_72" x="0.330414" y="7.44119" width="94.6724" height="97.7844" filterUnits="userSpaceOnUse" color-interpolation-filters="sRGB">
<feFlood flood-opacity="0" result="BackgroundImageFix"/>
<feGaussianBlur in="BackgroundImageFix" stdDeviation="12"/>
<feComposite in2="SourceAlpha" operator="in" result="effect1_backgroundBlur_1_72"/>
<feBlend mode="normal" in="SourceGraphic" in2="effect1_backgroundBlur_1_72" result="shape"/>
</filter>
<filter id="filter2_d_1_72" x="31.6325" y="45.0613" width="38.5796" height="29.0558" filterUnits="userSpaceOnUse" color-interpolation-filters="sRGB">
<feFlood flood-opacity="0" result="BackgroundImageFix"/>
<feColorMatrix in="SourceAlpha" type="matrix" values="0 0 0 0 0 0 0 0 0 0 0 0 0 0 0 0 0 0 127 0" result="hardAlpha"/>
<feOffset dx="3.25583" dy="3.25583"/>
<feGaussianBlur stdDeviation="3.25583"/>
<feColorMatrix type="matrix" values="0 0 0 0 0.788235 0 0 0 0 0.152941 0 0 0 0 0.666667 0 0 0 0.5 0"/>
<feBlend mode="normal" in2="BackgroundImageFix" result="effect1_dropShadow_1_72"/>
<feBlend mode="normal" in="SourceGraphic" in2="effect1_dropShadow_1_72" result="shape"/>
</filter>
<radialGradient id="paint0_radial_1_72" cx="0" cy="0" r="1" gradientUnits="userSpaceOnUse" gradientTransform="translate(1 1) rotate(45) scale(141.421)">
<stop stop-color="#FAFAFA"/>
<stop offset="1" stop-color="#F7F7F7" stop-opacity="0"/>
</radialGradient>
<linearGradient id="paint1_linear_1_72" x1="51" y1="1" x2="51" y2="101" gradientUnits="userSpaceOnUse">
<stop stop-color="white"/>
<stop offset="1" stop-color="white" stop-opacity="0"/>
</linearGradient>
<linearGradient id="paint2_linear_1_72" x1="47.6665" y1="59" x2="81.7101" y2="26.4086" gradientUnits="userSpaceOnUse">
<stop stop-color="#94208F"/>
<stop offset="1" stop-color="#FF2EC5"/>
</linearGradient>
<linearGradient id="paint3_linear_1_72" x1="24.8304" y1="31.9412" x2="73.5305" y2="77.4883" gradientUnits="userSpaceOnUse">
<stop stop-color="white" stop-opacity="0.25"/>
<stop offset="1" stop-color="white" stop-opacity="0"/>
</linearGradient>
<linearGradient id="paint4_linear_1_72" x1="47.8817" y1="67.7653" x2="67.9785" y2="36.3632" gradientUnits="userSpaceOnUse">
<stop stop-color="white"/>
<stop offset="1" stop-color="white" stop-opacity="0.2"/>
</linearGradient>
</defs>
</svg>
