<svg width="102" height="102" viewBox="0 0 102 102" fill="none" xmlns="http://www.w3.org/2000/svg">
<g filter="url(#filter0_b_1_66)">
<rect x="1" y="1" width="100" height="100" rx="24" fill="url(#paint0_radial_1_66)" fill-opacity="0.2"/>
<rect x="1" y="1" width="100" height="100" rx="24" stroke="url(#paint1_linear_1_66)" stroke-width="2"/>
</g>
<circle cx="65" cy="35.6667" r="16.6667" fill="url(#paint2_linear_1_66)"/>
<g filter="url(#filter1_b_1_66)">
<path fill-rule="evenodd" clip-rule="evenodd" d="M48.2328 30.6667C44.1516 30.6666 40.9525 30.6666 38.4144 30.9416C35.8243 31.2222 33.7257 31.8052 31.9339 33.107C30.8491 33.8951 29.8952 34.8491 29.107 35.9338C27.8052 37.7257 27.2223 39.8243 26.9416 42.4144C26.6667 44.9525 26.6667 48.1516 26.6667 52.2328V52.4339C26.6667 56.5151 26.6667 59.7142 26.9416 62.2523C27.2223 64.8423 27.8052 66.941 29.107 68.7328C29.8952 69.8176 30.8491 70.7715 31.9339 71.5597C33.7257 72.8615 35.8243 73.4444 38.4144 73.725C40.9524 74 44.1515 74 48.2326 74H48.434C52.515 74 55.7143 74 58.2523 73.725C60.8424 73.4444 62.941 72.8615 64.7328 71.5597C65.8176 70.7715 66.7716 69.8176 67.5597 68.7328C68.8615 66.941 69.4444 64.8423 69.7251 62.2523C70 59.7142 70 56.5152 70 52.4341V52.2327C70 48.1516 70 44.9524 69.7251 42.4144C69.4444 39.8243 68.8615 37.7257 67.5597 35.9338C66.7715 34.8491 65.8176 33.8951 64.7328 33.107C62.941 31.8052 60.8424 31.2222 58.2523 30.9416C55.7142 30.6666 52.5151 30.6666 48.4339 30.6667H48.2328Z" fill="#C72752" fill-opacity="0.35"/>
<path fill-rule="evenodd" clip-rule="evenodd" d="M48.2328 30.6667C44.1516 30.6666 40.9525 30.6666 38.4144 30.9416C35.8243 31.2222 33.7257 31.8052 31.9339 33.107C30.8491 33.8951 29.8952 34.8491 29.107 35.9338C27.8052 37.7257 27.2223 39.8243 26.9416 42.4144C26.6667 44.9525 26.6667 48.1516 26.6667 52.2328V52.4339C26.6667 56.5151 26.6667 59.7142 26.9416 62.2523C27.2223 64.8423 27.8052 66.941 29.107 68.7328C29.8952 69.8176 30.8491 70.7715 31.9339 71.5597C33.7257 72.8615 35.8243 73.4444 38.4144 73.725C40.9524 74 44.1515 74 48.2326 74H48.434C52.515 74 55.7143 74 58.2523 73.725C60.8424 73.4444 62.941 72.8615 64.7328 71.5597C65.8176 70.7715 66.7716 69.8176 67.5597 68.7328C68.8615 66.941 69.4444 64.8423 69.7251 62.2523C70 59.7142 70 56.5152 70 52.4341V52.2327C70 48.1516 70 44.9524 69.7251 42.4144C69.4444 39.8243 68.8615 37.7257 67.5597 35.9338C66.7715 34.8491 65.8176 33.8951 64.7328 33.107C62.941 31.8052 60.8424 31.2222 58.2523 30.9416C55.7142 30.6666 52.5151 30.6666 48.4339 30.6667H48.2328Z" stroke="url(#paint3_linear_1_66)"/>
</g>
<g filter="url(#filter2_d_1_66)">
<path fill-rule="evenodd" clip-rule="evenodd" d="M40 52.3333C40 47.731 43.731 44 48.3333 44C52.9357 44 56.6667 47.731 56.6667 52.3333C56.6667 56.9357 52.9357 60.6667 48.3333 60.6667C43.731 60.6667 40 56.9357 40 52.3333ZM59.4444 43.4444C58.2171 43.4444 57.2222 42.4495 57.2222 41.2222C57.2222 39.9949 58.2171 39 59.4444 39C60.6717 39 61.6667 39.9949 61.6667 41.2222C61.6667 42.4495 60.6717 43.4444 59.4444 43.4444Z" fill="url(#paint4_linear_1_66)"/>
</g>
<defs>
<filter id="filter0_b_1_66" x="-24" y="-24" width="150" height="150" filterUnits="userSpaceOnUse" color-interpolation-filters="sRGB">
<feFlood flood-opacity="0" result="BackgroundImageFix"/>
<feGaussianBlur in="BackgroundImageFix" stdDeviation="12"/>
<feComposite in2="SourceAlpha" operator="in" result="effect1_backgroundBlur_1_66"/>
<feBlend mode="normal" in="SourceGraphic" in2="effect1_backgroundBlur_1_66" result="shape"/>
</filter>
<filter id="filter1_b_1_66" x="2.16669" y="6.16666" width="92.3333" height="92.3333" filterUnits="userSpaceOnUse" color-interpolation-filters="sRGB">
<feFlood flood-opacity="0" result="BackgroundImageFix"/>
<feGaussianBlur in="BackgroundImageFix" stdDeviation="12"/>
<feComposite in2="SourceAlpha" operator="in" result="effect1_backgroundBlur_1_66"/>
<feBlend mode="normal" in="SourceGraphic" in2="effect1_backgroundBlur_1_66" result="shape"/>
</filter>
<filter id="filter2_d_1_66" x="36.7442" y="35.7442" width="34.69" height="34.69" filterUnits="userSpaceOnUse" color-interpolation-filters="sRGB">
<feFlood flood-opacity="0" result="BackgroundImageFix"/>
<feColorMatrix in="SourceAlpha" type="matrix" values="0 0 0 0 0 0 0 0 0 0 0 0 0 0 0 0 0 0 127 0" result="hardAlpha"/>
<feOffset dx="3.25583" dy="3.25583"/>
<feGaussianBlur stdDeviation="3.25583"/>
<feColorMatrix type="matrix" values="0 0 0 0 0.8 0 0 0 0 0.156863 0 0 0 0 0.32549 0 0 0 0.5 0"/>
<feBlend mode="normal" in2="BackgroundImageFix" result="effect1_dropShadow_1_66"/>
<feBlend mode="normal" in="SourceGraphic" in2="effect1_dropShadow_1_66" result="shape"/>
</filter>
<radialGradient id="paint0_radial_1_66" cx="0" cy="0" r="1" gradientUnits="userSpaceOnUse" gradientTransform="translate(1 1) rotate(45) scale(141.421)">
<stop stop-color="#FAFAFA"/>
<stop offset="1" stop-color="#F7F7F7" stop-opacity="0"/>
</radialGradient>
<linearGradient id="paint1_linear_1_66" x1="51" y1="1" x2="51" y2="101" gradientUnits="userSpaceOnUse">
<stop stop-color="white"/>
<stop offset="1" stop-color="white" stop-opacity="0"/>
</linearGradient>
<linearGradient id="paint2_linear_1_66" x1="48.3334" y1="52.3334" x2="82.377" y2="19.742" gradientUnits="userSpaceOnUse">
<stop stop-color="#942050"/>
<stop offset="1" stop-color="#FF2E54"/>
</linearGradient>
<linearGradient id="paint3_linear_1_66" x1="26.6667" y1="30.6667" x2="70.022" y2="73.978" gradientUnits="userSpaceOnUse">
<stop stop-color="white" stop-opacity="0.25"/>
<stop offset="1" stop-color="white" stop-opacity="0"/>
</linearGradient>
<linearGradient id="paint4_linear_1_66" x1="51.0158" y1="65.2826" x2="80.9192" y2="35.9698" gradientUnits="userSpaceOnUse">
<stop stop-color="white"/>
<stop offset="1" stop-color="white" stop-opacity="0.2"/>
</linearGradient>
</defs>
</svg>
