<svg width="16" height="16" viewBox="0 0 16 16" fill="none" xmlns="http://www.w3.org/2000/svg">
<path fill-rule="evenodd" clip-rule="evenodd" d="M3.33333 7.33344H11.2433L8.82133 4.42677C8.58533 4.1441 8.624 3.72344 8.90667 3.4881C9.19 3.2521 9.61 3.29077 9.84533 3.57344L13.1787 7.57344C13.2047 7.60477 13.218 7.64144 13.2373 7.6761C13.2533 7.7041 13.2727 7.7281 13.2847 7.75877C13.3147 7.83544 13.3327 7.9161 13.3327 7.99744C13.3327 7.9981 13.3333 7.99944 13.3333 8.0001C13.3333 8.00077 13.3327 8.0021 13.3327 8.00277C13.3327 8.0841 13.3147 8.16477 13.2847 8.24144C13.2727 8.2721 13.2533 8.2961 13.2373 8.3241C13.218 8.35877 13.2047 8.39544 13.1787 8.42677L9.84533 12.4268C9.71333 12.5848 9.524 12.6668 9.33333 12.6668C9.18267 12.6668 9.03133 12.6161 8.90667 12.5121C8.624 12.2768 8.58533 11.8561 8.82133 11.5734L11.2433 8.66677H3.33333C2.96533 8.66677 2.66667 8.3681 2.66667 8.0001C2.66667 7.6321 2.96533 7.33344 3.33333 7.33344Z" fill="white"/>
</svg>
