<svg width="152" height="40" viewBox="0 0 152 40" fill="none" xmlns="http://www.w3.org/2000/svg">
<path d="M5.20001 2.3999C9.83764 2.3999 13.5972 6.15944 13.5972 10.7971V29.8463C8.95955 29.8463 5.20001 26.0868 5.20001 21.4491V2.3999Z" fill="white"/>
<path d="M15.6965 10.1536C20.3341 10.1536 24.0936 13.9131 24.0936 18.5507V37.5999C19.456 37.5999 15.6965 33.8404 15.6965 29.2028V10.1536Z" fill="white"/>
<path d="M26.4028 37.5999C28.6299 37.5999 30.7657 36.877 32.3405 35.5902C33.9153 34.3034 34.8 32.5581 34.8 30.7383C34.8 28.9185 33.9153 27.1732 32.3405 25.8864C30.7657 24.5996 28.6299 23.8767 26.4028 23.8767L26.4028 30.7383V37.5999Z" fill="white"/>
<path d="M53.592 16.504C53.976 15.88 54.528 15.376 55.248 14.992C55.968 14.608 56.792 14.416 57.72 14.416C58.824 14.416 59.824 14.696 60.72 15.256C61.616 15.816 62.32 16.616 62.832 17.656C63.36 18.696 63.624 19.904 63.624 21.28C63.624 22.656 63.36 23.872 62.832 24.928C62.32 25.968 61.616 26.776 60.72 27.352C59.824 27.912 58.824 28.192 57.72 28.192C56.776 28.192 55.952 28.008 55.248 27.64C54.544 27.256 53.992 26.752 53.592 26.128V28H49.488V10.24H53.592V16.504ZM59.448 21.28C59.448 20.256 59.16 19.456 58.584 18.88C58.024 18.288 57.328 17.992 56.496 17.992C55.68 17.992 54.984 18.288 54.408 18.88C53.848 19.472 53.568 20.28 53.568 21.304C53.568 22.328 53.848 23.136 54.408 23.728C54.984 24.32 55.68 24.616 56.496 24.616C57.312 24.616 58.008 24.32 58.584 23.728C59.16 23.12 59.448 22.304 59.448 21.28ZM67.8411 13.216C67.1211 13.216 66.5291 13.008 66.0651 12.592C65.6171 12.16 65.3931 11.632 65.3931 11.008C65.3931 10.368 65.6171 9.84 66.0651 9.424C66.5291 8.992 67.1211 8.776 67.8411 8.776C68.5451 8.776 69.1211 8.992 69.5691 9.424C70.0331 9.84 70.2651 10.368 70.2651 11.008C70.2651 11.632 70.0331 12.16 69.5691 12.592C69.1211 13.008 68.5451 13.216 67.8411 13.216ZM69.8811 14.608V28H65.7771V14.608H69.8811ZM76.6952 24.616H82.5032V28H72.1112V24.736L77.6792 17.992H72.1592V14.608H82.3832V17.872L76.6952 24.616ZM83.9454 21.28C83.9454 19.904 84.2014 18.696 84.7134 17.656C85.2414 16.616 85.9534 15.816 86.8494 15.256C87.7454 14.696 88.7454 14.416 89.8494 14.416C90.7294 14.416 91.5294 14.6 92.2494 14.968C92.9854 15.336 93.5614 15.832 93.9774 16.456V10.24H98.0814V28H93.9774V26.08C93.5934 26.72 93.0414 27.232 92.3214 27.616C91.6174 28 90.7934 28.192 89.8494 28.192C88.7454 28.192 87.7454 27.912 86.8494 27.352C85.9534 26.776 85.2414 25.968 84.7134 24.928C84.2014 23.872 83.9454 22.656 83.9454 21.28ZM93.9774 21.304C93.9774 20.28 93.6894 19.472 93.1134 18.88C92.5534 18.288 91.8654 17.992 91.0494 17.992C90.2334 17.992 89.5374 18.288 88.9614 18.88C88.4014 19.456 88.1214 20.256 88.1214 21.28C88.1214 22.304 88.4014 23.12 88.9614 23.728C89.5374 24.32 90.2334 24.616 91.0494 24.616C91.8654 24.616 92.5534 24.32 93.1134 23.728C93.6894 23.136 93.9774 22.328 93.9774 21.304ZM103.115 13.216C102.395 13.216 101.803 13.008 101.339 12.592C100.891 12.16 100.667 11.632 100.667 11.008C100.667 10.368 100.891 9.84 101.339 9.424C101.803 8.992 102.395 8.776 103.115 8.776C103.819 8.776 104.395 8.992 104.843 9.424C105.307 9.84 105.539 10.368 105.539 11.008C105.539 11.632 105.307 12.16 104.843 12.592C104.395 13.008 103.819 13.216 103.115 13.216ZM105.155 14.608V28H101.051V14.608H105.155ZM116.289 14.464C117.857 14.464 119.105 14.976 120.033 16C120.977 17.008 121.449 18.4 121.449 20.176V28H117.369V20.728C117.369 19.832 117.137 19.136 116.673 18.64C116.209 18.144 115.585 17.896 114.801 17.896C114.017 17.896 113.393 18.144 112.929 18.64C112.465 19.136 112.233 19.832 112.233 20.728V28H108.129V14.608H112.233V16.384C112.649 15.792 113.209 15.328 113.913 14.992C114.617 14.64 115.409 14.464 116.289 14.464ZM128.57 21.28C128.57 19.904 128.826 18.696 129.338 17.656C129.866 16.616 130.578 15.816 131.474 15.256C132.37 14.696 133.37 14.416 134.474 14.416C135.418 14.416 136.242 14.608 136.946 14.992C137.666 15.376 138.218 15.88 138.602 16.504V14.608H142.706V28H138.602V26.104C138.202 26.728 137.642 27.232 136.922 27.616C136.218 28 135.394 28.192 134.45 28.192C133.362 28.192 132.37 27.912 131.474 27.352C130.578 26.776 129.866 25.968 129.338 24.928C128.826 23.872 128.57 22.656 128.57 21.28ZM138.602 21.304C138.602 20.28 138.314 19.472 137.738 18.88C137.178 18.288 136.49 17.992 135.674 17.992C134.858 17.992 134.162 18.288 133.586 18.88C133.026 19.456 132.746 20.256 132.746 21.28C132.746 22.304 133.026 23.12 133.586 23.728C134.162 24.32 134.858 24.616 135.674 24.616C136.49 24.616 137.178 24.32 137.738 23.728C138.314 23.136 138.602 22.328 138.602 21.304ZM147.74 13.216C147.02 13.216 146.428 13.008 145.964 12.592C145.516 12.16 145.292 11.632 145.292 11.008C145.292 10.368 145.516 9.84 145.964 9.424C146.428 8.992 147.02 8.776 147.74 8.776C148.444 8.776 149.02 8.992 149.468 9.424C149.932 9.84 150.164 10.368 150.164 11.008C150.164 11.632 149.932 12.16 149.468 12.592C149.02 13.008 148.444 13.216 147.74 13.216ZM149.78 14.608V28H145.676V14.608H149.78Z" fill="white"/>
</svg>
